<svg width="169" height="61" viewBox="0 0 169 61" fill="none" xmlns="http://www.w3.org/2000/svg">
<g clip-path="url(#clip0_13_2)">
<path d="M92.6597 18.0995C90.9684 18.2851 86.8949 17.3299 86.3369 17.2581C86.3543 17.797 86.3774 18.348 86.3976 18.899C87.2447 19.0397 91.1737 19.8213 92.5353 19.6176C92.5758 19.1086 92.6163 18.5995 92.6568 18.0995H92.6597Z" fill="#0F204B"/>
<path d="M92.0552 26.6064C92.0754 26.1302 92.0841 25.7649 92.113 25.0822C90.4419 25.4415 87.3398 24.7259 86.6171 24.6899C86.62 24.9744 86.6229 25.2289 86.6171 25.4475C86.6113 25.72 86.6084 25.9745 86.6084 26.2201C87.1693 26.4896 88.9415 27.1693 92.0234 26.6123C92.0349 26.6123 92.0436 26.6093 92.0523 26.6064H92.0552Z" fill="#0F204B"/>
<path d="M92.2376 23.0132C92.2781 22.5071 92.3504 21.9861 92.3937 21.4471C89.8669 21.8453 86.9701 21.0009 86.4873 20.947C86.5104 21.498 86.5336 22.034 86.5538 22.537C86.5654 22.543 86.5798 22.546 86.5914 22.552C86.9181 22.6838 89.786 23.639 92.2289 23.0161C92.2289 23.0161 92.2347 23.0161 92.2376 23.0161V23.0132Z" fill="#0F204B"/>
<path d="M93.2688 9.34393C93.3122 8.65822 93.3468 8.1312 93.3468 8.1312C93.3787 7.4365 93.4191 7.29876 92.7455 7.20893C92.1355 7.12509 91.6209 7.08017 90.875 6.90949C90.1291 6.73881 88.1111 6.28067 87.7266 6.13694C87.3392 5.99021 87.2496 6.19982 87.2294 6.26869C87.2294 6.26869 87.0993 6.83164 86.9287 7.70899C86.9779 7.69402 87.0299 7.67905 87.0877 7.68803C87.3913 7.72696 90.6177 9.77213 93.2688 9.34393Z" fill="#0F204B"/>
<path d="M90.7366 16.0511C92.5435 16.2577 91.9682 16.2157 92.7603 16.2756C92.7748 16.2756 92.7892 16.2756 92.8066 16.2756C92.8471 15.7696 92.8846 15.2845 92.9193 14.8323C92.9165 14.8323 92.9107 14.8323 92.9078 14.8323C90.9708 14.9791 86.8163 13.5418 86.2873 13.4849C86.2873 13.5867 86.2815 13.6855 86.2815 13.7873C86.2757 14.2185 86.2786 14.6886 86.2844 15.1887C86.6891 15.2126 88.8863 15.8415 90.7366 16.0541V16.0511Z" fill="#0F204B"/>
<path d="M92.9826 12.955C93.0115 12.955 93.0346 12.952 93.0606 12.949C93.1069 12.3261 93.1358 11.88 93.1445 11.6883C93.1502 11.5686 93.156 11.4368 93.1618 11.3021C90.4818 11.3889 87.0906 9.91865 86.787 9.84679C86.7003 9.82583 86.5702 9.80786 86.5702 9.80786C86.4863 10.3648 86.4054 10.9577 86.3418 11.5566C86.8738 11.6853 90.528 13.1286 92.9854 12.955H92.9826Z" fill="#0F204B"/>
<path d="M92.2194 39.7097C91.6354 39.8055 90.9445 39.9283 90.268 40.0601C88.808 40.3445 87.3249 41.1291 87.0444 41.6411C86.9317 41.8447 86.8825 42.1472 86.8623 42.4376C87.1543 42.8658 87.4608 43.3359 87.8366 43.9827C87.9118 43.6503 88.091 43.2611 88.5044 42.9287C89.4238 42.1831 91.5545 41.5453 92.7311 41.4135C92.549 40.8865 92.3727 40.2966 92.2165 39.7127L92.2194 39.7097Z" fill="#0F204B"/>
<path d="M94.033 44.5071C93.7035 43.8004 93.5763 43.5489 93.3768 43.0728C92.1625 43.5309 90.1186 44.552 89.5548 44.9442C89.1905 45.1988 88.9246 45.621 88.7598 45.9474C88.9939 46.3995 89.2223 46.684 89.5114 47.2679C89.6068 47.4595 89.7023 47.6392 89.8005 47.8129C89.8323 47.3697 89.9682 47.0134 90.2862 46.7798C90.8298 46.3816 93.4491 45.3635 94.1371 44.7197C94.1024 44.6478 94.062 44.5759 94.0302 44.5071H94.033Z" fill="#0F204B"/>
<path d="M95.0999 46.3333C94.9091 46.6117 94.6315 46.9561 94.2499 47.2915C93.4896 47.9532 91.5468 48.0341 90.9859 48.5461C90.8183 48.6988 90.7171 48.9234 90.6562 49.16C90.9021 49.4983 91.1392 49.7948 91.3618 50.0493C91.9255 50.6991 92.177 50.6841 92.735 51.2261C93.8221 52.2891 94.9525 55.7147 96.0973 55.02C96.742 54.6307 97.1844 50.5793 96.4587 49.0252C95.8747 47.7706 95.6203 47.0998 95.0999 46.3333Z" fill="#0F204B"/>
<path d="M91.8785 30.4662C91.893 30.2296 91.9074 30.023 91.9248 29.8583C91.9913 29.1367 91.9623 29.1367 91.9912 28.9391C91.9797 28.9391 91.971 28.9391 91.9623 28.942C90.0282 29.2205 87.3714 28.6157 86.6227 28.2683C86.6256 28.8073 86.6226 29.3433 86.5938 29.9392C86.6024 29.9422 86.6111 29.9482 86.6227 29.9512C87.3859 30.2925 89.0279 30.9483 91.8091 30.4752C91.8351 30.4722 91.8554 30.4662 91.8785 30.4632V30.4662Z" fill="#0F204B"/>
<path d="M90.1296 38.1828C90.6211 38.1738 91.2889 38.072 91.8325 37.9732C91.7891 37.7217 91.7573 37.4911 91.7428 37.2935C91.7255 37.0629 91.7139 36.6796 91.7139 36.2095C90.9709 36.2604 89.9533 36.3323 88.9356 36.4221C86.9928 36.5928 86.4377 36.3712 86.1111 35.9909C86.0879 35.964 86.0619 35.928 86.0388 35.8921C86.0359 35.9041 86.033 35.919 86.0301 35.934C85.7063 37.3174 84.8621 39.5393 85.7583 41.1053C85.7641 41.0784 85.7699 41.0514 85.7786 41.0245C85.9492 40.3627 86.2903 39.132 87.412 38.7338C88.5309 38.3355 89.1698 38.2038 90.1325 38.1858L90.1296 38.1828Z" fill="#0F204B"/>
<path d="M86.7763 32.1671C86.6549 32.1342 86.5479 32.0892 86.4496 32.0383C86.4092 32.6522 86.3774 33.2241 86.334 33.7631C86.4005 33.808 86.4699 33.8529 86.545 33.8889C87.2302 34.2302 90.5665 34.6405 91.5784 34.3201C91.6304 34.3021 91.6824 34.2871 91.7374 34.2692C91.7518 33.6523 91.7692 33.0085 91.7923 32.4007C91.7431 32.4096 91.6911 32.4186 91.642 32.4246C90.3207 32.6342 87.5569 32.3737 86.7821 32.1641L86.7763 32.1671Z" fill="#0F204B"/>
<path d="M139.564 42.2373C139.509 41.7821 139.445 41.33 139.405 40.8748C139.379 40.5814 139.413 40.2849 139.361 39.9945C139.303 39.6681 139.147 39.3537 139.087 39.0273C138.954 38.3176 138.832 37.6079 138.748 36.8953C138.607 35.6885 138.511 34.4818 138.375 33.275C138.289 32.5085 137.835 30.9574 137.921 30.1938C138.034 29.562 137.852 29.1727 137.725 28.8763C137.653 28.7745 137.575 28.6787 137.496 28.5798C137.239 28.2505 137.207 28.1277 136.849 27.9241C136.36 27.6456 136.305 27.4 136.143 27.1306C135.938 26.7862 135.834 26.34 135.834 26.34C135.75 26.0286 135.481 25.9148 135.23 25.7651C135.013 25.6364 134.75 25.5854 134.513 25.4896C133.952 25.2621 133.579 24.8488 133.125 24.5164C132.822 24.2919 132.472 24.0733 132.293 23.7858C132.11 23.4924 131.853 23.3277 131.573 23.139C131.165 22.8665 130.833 22.8845 130.353 22.5072C130.208 22.3934 129.205 22.1149 128.789 22.0101C128.534 21.9473 128.225 21.9323 128.043 21.7945C127.791 21.6059 127.43 21.7077 127.178 21.8095C126.51 22.079 125.999 22.2227 125.238 22.2257C125.056 22.2257 124.871 22.2916 124.695 22.3395C123.553 22.6899 123.111 23.157 122.686 23.2947C122.264 23.4355 121.654 24.3248 121.512 24.5135C121.37 24.7021 120.997 25.265 120.902 25.5465C120.821 25.7891 119.87 26.9719 119.61 27.2952C119.566 27.3491 119.508 27.3911 119.453 27.43C118.8 27.8762 119.026 29.4302 119.026 29.4302C119.066 29.9543 118.251 31.8557 118.225 32.6642C118.202 33.4727 117.837 35.8083 117.837 35.8083C117.765 36.4371 117.554 38.3116 117.407 38.6081C117.198 38.7248 116.915 39.0063 116.877 39.1051C116.718 39.5184 116.606 39.8418 116.909 40.267C117.01 40.4077 117.019 40.6053 117.045 40.779C117.071 40.9557 117.074 41.1353 117.08 41.315C117.08 41.3479 117.08 41.3839 117.08 41.4168C117.068 41.5845 117.034 41.7282 117.013 41.8061C117.005 41.836 116.996 41.866 116.984 41.8959C116.898 42.1175 116.412 43.456 116.866 44.3274C117.022 44.6268 117.346 44.7735 117.675 44.7705C117.716 44.7705 117.748 44.7765 117.774 44.7915C118.259 45.067 118.722 44.9622 118.962 44.504C119.182 44.0848 119.37 43.6476 119.641 43.2524C119.849 42.9469 119.933 42.6295 119.956 42.3031C119.988 41.8899 119.902 41.4707 119.942 41.0575C120.046 39.9975 120.202 38.9434 120.321 37.8834C120.321 37.8655 120.324 37.8475 120.327 37.8295C120.327 37.8954 120.327 37.9583 120.324 38.0242V39.5124C120.324 40.0094 120.332 40.5095 120.39 41.0096C120.445 41.5096 120.558 41.9977 120.711 42.4708C120.72 42.4948 120.743 42.5098 120.769 42.5038C120.795 42.4978 120.809 42.4708 120.804 42.4439C120.685 41.9678 120.613 41.4797 120.584 40.9916C120.555 40.5035 120.575 40.0124 120.601 39.5214L120.688 38.0391C120.72 37.5481 120.763 37.057 120.809 36.5629C120.899 35.5777 120.974 34.5806 120.963 33.5805C120.96 33.0924 120.939 32.6043 120.902 32.1192C120.922 31.8707 120.939 31.6251 120.954 31.3856C120.971 31.0352 121.07 30.6909 121.191 30.3615C121.405 29.7896 121.668 29.2266 121.951 28.6817C122.018 28.5529 122.076 28.4271 122.136 28.3044V28.5349C122.142 28.8463 122.136 29.1578 122.116 29.4692C122.093 29.7806 122.067 30.092 122.026 30.4034C122.024 30.4304 122.041 30.4573 122.067 30.4603C122.093 30.4663 122.122 30.4483 122.128 30.4214C122.191 30.113 122.255 29.8016 122.298 29.4871C122.342 29.1727 122.37 28.8553 122.385 28.5379C122.397 28.3103 122.402 28.0858 122.408 27.8612C122.509 27.7384 122.636 27.6246 122.81 27.5258C122.96 27.4629 123.015 27.2653 123.035 27.1695C123.035 27.0916 123.024 27.0317 123.015 26.9659C122.983 26.7622 123.015 26.5526 123.111 26.37C123.192 26.2173 123.278 26.1334 123.382 25.8759C123.434 25.7471 123.553 25.6064 123.689 25.5435C123.697 25.5405 123.706 25.5345 123.718 25.5315C123.724 25.6154 123.732 25.7022 123.738 25.7861L123.836 27.0377C123.851 27.2473 123.865 27.4539 123.874 27.6606C123.877 27.8672 123.874 28.0708 123.859 28.2774C123.828 28.6906 123.767 29.1009 123.7 29.5141C123.426 31.158 123.111 32.8169 123.116 34.5117C123.105 35.3591 123.22 36.2066 123.301 37.03C123.385 37.8625 123.472 38.6919 123.562 39.5214C123.657 40.3538 123.738 41.1803 123.752 42.0127C123.773 42.8421 123.726 43.6776 123.562 44.492C123.556 44.519 123.573 44.5489 123.599 44.5549C123.628 44.5609 123.654 44.543 123.663 44.516C124.053 42.8721 123.961 41.1533 123.799 39.4944C123.726 38.659 123.651 37.8265 123.57 36.9911C123.495 36.1527 123.391 35.3352 123.408 34.5057C123.429 32.8469 123.695 31.1999 123.911 29.538C123.966 29.1218 124.01 28.7026 124.036 28.2804C124.05 28.0708 124.05 27.8552 124.044 27.6426C124.033 27.433 124.016 27.2234 123.998 27.0138C123.961 26.5976 123.926 26.1813 123.914 25.7651C123.914 25.6573 123.911 25.5465 123.911 25.4387C125.108 24.9087 126.427 24.6362 127.699 24.2709C127.832 24.232 128.017 24.3338 128.179 24.3637C128.286 24.3847 128.416 24.4266 128.572 24.3637C128.647 24.3338 128.713 24.3158 128.774 24.3038C128.647 25.1153 128.546 25.9358 128.505 26.7622C128.462 27.6396 128.479 28.5319 128.633 29.4063C128.792 30.2837 129.081 31.1011 129.13 31.9545C129.164 32.3797 129.167 32.8139 129.153 33.2451C129.138 33.6793 129.118 34.1105 129.072 34.5387C128.979 35.4011 128.844 36.2605 128.69 37.1169C128.54 37.9762 128.355 38.8177 128.141 39.6651C127.942 40.5155 127.759 41.3689 127.632 42.2373C127.502 43.1026 127.424 43.977 127.392 44.8514C127.392 44.8813 127.412 44.9053 127.441 44.9083C127.47 44.9083 127.493 44.8873 127.496 44.8574C127.583 43.1176 127.904 41.4018 128.329 39.719C128.552 38.8806 128.751 38.0242 128.913 37.1648C129.078 36.3054 129.225 35.446 129.332 34.5746C129.387 34.1374 129.413 33.6973 129.433 33.2601C129.451 32.8199 129.456 32.3767 129.425 31.9336C129.396 31.4904 129.318 31.0442 129.217 30.619C129.118 30.1908 129.008 29.7716 128.936 29.3524C128.789 28.511 128.76 27.6456 128.797 26.7802C128.832 25.9568 128.919 25.1333 128.988 24.3068C129.121 24.3308 129.245 24.3877 129.399 24.4596C129.997 24.732 130.506 25.0105 131.026 25.289C130.925 26.7173 130.853 28.1457 130.818 29.58C130.807 30.4214 130.804 31.2628 130.856 32.1102C130.914 32.9546 131 33.7871 131.084 34.6225C131.252 36.2874 131.367 37.9613 131.197 39.6142C131.11 40.4406 130.942 41.2641 130.827 42.0965C130.711 42.929 130.639 43.7854 130.752 44.6268C130.755 44.6537 130.781 44.6747 130.807 44.6717C130.836 44.6717 130.856 44.6448 130.853 44.6148C130.783 43.7824 130.876 42.9499 131.021 42.1295C131.162 41.306 131.341 40.4856 131.451 39.6471C131.671 37.9613 131.547 36.2605 131.399 34.5896C131.327 33.7542 131.232 32.9187 131.171 32.0863C131.113 31.2568 131.116 30.4184 131.119 29.583C131.119 28.7445 131.139 27.9061 131.162 27.0707L131.208 25.3878C131.521 25.5555 131.842 25.7232 132.194 25.8909C132.666 26.1155 133.628 26.5736 133.677 26.5886C133.718 26.6005 133.755 26.6125 133.793 26.6245C133.703 27.0587 133.643 27.4959 133.608 27.939C133.559 28.5679 133.57 29.1997 133.608 29.8285C133.657 30.4543 133.729 31.0772 133.805 31.694C133.88 32.3109 133.946 32.9277 133.952 33.5475C133.952 33.5745 133.972 33.5955 133.998 33.5984C134.027 33.5984 134.05 33.5805 134.053 33.5505C134.114 32.9217 134.079 32.2899 134.036 31.6671C133.99 31.0442 133.92 30.4244 133.888 29.8075C133.845 29.1907 133.839 28.5709 133.868 27.957C133.888 27.5318 133.929 27.1096 133.987 26.6904C134.484 26.87 134.805 27.1096 135.068 27.5617C135.028 27.7025 134.981 27.8702 134.929 28.0708C134.897 28.1936 134.869 28.3044 134.845 28.3852C134.77 28.6517 134.77 28.9362 134.779 29.1817C134.79 29.4812 134.819 29.8734 134.952 30.2327C135.054 30.5112 135.21 30.7508 135.36 30.9813C135.536 31.2508 135.701 31.5054 135.776 31.8108L135.817 31.9665C135.909 32.9067 135.895 33.862 135.831 34.8142C135.762 35.8293 135.669 36.8414 135.554 37.8565C135.444 38.8716 135.317 39.8837 135.236 40.9048C135.146 41.9348 135.27 42.9589 135.285 43.974C135.285 44.004 135.308 44.0279 135.34 44.0279C135.372 44.0279 135.395 44.004 135.395 43.971C135.406 42.9469 135.32 41.9259 135.424 40.9167C135.522 39.9046 135.666 38.8955 135.797 37.8804C135.927 36.8683 136.057 35.8532 136.12 34.8261C136.184 33.841 136.213 32.8439 136.086 31.8497L136.097 31.7868C136.126 31.6401 136.152 31.5024 136.193 31.3706C136.224 31.2658 136.268 31.167 136.314 31.0622C136.329 31.0263 136.343 30.9903 136.36 30.9544C136.47 31.3556 136.577 31.6281 136.655 32.1102C136.832 33.2092 136.95 34.3111 137.077 35.416C137.141 35.961 137.196 36.509 137.254 37.054C137.129 37.9972 136.991 38.9434 136.953 39.9016C136.913 40.9018 136.982 41.8989 137.072 42.8871C137.072 42.917 137.098 42.938 137.126 42.935C137.155 42.935 137.178 42.908 137.176 42.8781C137.121 41.8869 137.086 40.8958 137.161 39.9136C137.205 39.3387 137.283 38.7668 137.375 38.1978C137.39 38.3356 137.404 38.4733 137.421 38.6111C137.47 39.0243 137.416 39.4585 137.702 39.8298C137.867 40.0424 137.982 40.2939 137.988 40.5664C137.994 40.758 137.997 40.9527 138.002 41.1443C138.002 41.1443 138.014 41.33 138.095 41.6564C138.176 41.9798 138.066 42.1265 138.15 42.381C138.185 42.4918 138.231 42.6026 138.242 42.7224C138.352 43.7764 138.199 44.0129 138.913 44.1477C138.913 44.1477 139.046 44.1657 139.182 44.0549C139.318 43.9441 139.396 43.7794 139.63 43.8243C139.647 43.8243 139.778 43.8303 139.74 43.6596C139.688 43.1775 139.624 42.6954 139.566 42.2103L139.564 42.2373ZM119.008 37.7996C118.936 38.1679 118.864 39.3118 118.794 39.6202C118.725 39.9286 118.557 41.5066 118.479 41.4587C118.181 41.0904 118.69 38.4554 118.771 37.602C118.93 36.5689 119.213 36.2096 119.251 36.2126C119.251 36.2126 119.277 36.4102 119.008 37.7996ZM127.583 23.0492C127.505 23.0432 126.739 23.2528 126.594 23.2708C126.453 23.2887 125.499 23.5972 125.334 23.5972C125.169 23.5972 124.244 23.9864 124.085 24.0224C123.923 24.0583 123.952 23.9805 123.952 23.9805C124.073 23.5852 125.533 22.8875 126.612 22.6839C127.014 22.609 127.615 22.6899 127.791 22.8845C127.866 22.9833 127.664 23.0552 127.586 23.0492H127.583ZM136.094 30.7598C136.068 30.8256 136.042 30.8915 136.013 30.9544C135.973 31.0472 135.932 31.146 135.898 31.2478C135.817 31.0951 135.724 30.9544 135.635 30.8137C135.49 30.5891 135.351 30.3765 135.262 30.1339C135.146 29.8195 135.12 29.4662 135.108 29.1907C135.1 28.9631 135.1 28.7206 135.163 28.505C135.187 28.4241 135.215 28.3103 135.25 28.1846C135.265 28.1337 135.279 28.0708 135.299 28.0019C135.956 29.2536 136.143 29.9393 136.222 30.3346C136.193 30.4753 136.152 30.619 136.097 30.7628L136.094 30.7598Z" fill="#0F204B"/>
<path d="M127.97 34.0654C127.959 33.7241 127.936 33.3827 127.901 33.0414C127.837 32.3616 127.728 31.6879 127.595 31.0201C127.528 30.6878 127.459 30.3554 127.384 30.023L127.268 29.5319C127.233 29.3702 127.207 29.2055 127.184 29.0408C127.103 28.3761 127.057 27.6994 127.097 27.0286C127.097 26.9987 127.08 26.9747 127.054 26.9717C127.025 26.9687 127.002 26.9897 126.996 27.0166C126.956 27.367 126.935 27.7203 126.935 28.0737C126.875 28.3072 126.779 28.5348 126.684 28.7624C126.568 29.0349 126.447 29.3073 126.325 29.5828C126.083 30.1308 125.846 30.6878 125.643 31.2627C125.244 32.4095 124.998 33.6253 124.955 34.85C124.941 35.1554 124.941 35.4608 124.949 35.7663C124.949 35.919 124.961 36.0717 124.97 36.2244C124.975 36.3741 124.996 36.5388 125.016 36.6885C125.103 37.2934 125.221 37.8833 125.337 38.4762C125.452 39.0661 125.562 39.659 125.663 40.2489C125.713 40.5453 125.762 40.8418 125.796 41.1382C125.825 41.3957 125.851 41.6532 125.846 41.9078C125.767 42.2371 125.704 42.5665 125.66 42.9049C125.658 42.9318 125.675 42.9588 125.701 42.9618C125.73 42.9678 125.756 42.9498 125.759 42.9199C126.019 41.5993 126.519 40.3417 126.959 39.0631C127.392 37.7845 127.823 36.4819 127.947 35.1015C127.979 34.7571 127.982 34.4068 127.968 34.0654H127.97ZM127.664 35.0746C127.609 35.7363 127.473 36.3951 127.305 37.0449C127.135 37.6946 126.935 38.3354 126.724 38.9792C126.513 39.62 126.308 40.2638 126.111 40.9136C126.065 41.0693 126.019 41.228 125.976 41.3867C125.973 41.2969 125.967 41.2071 125.961 41.1202C125.941 40.8178 125.909 40.5154 125.872 40.2159C125.799 39.6141 125.704 39.0182 125.611 38.4223C125.522 37.8264 125.418 37.2305 125.342 36.6436C125.325 36.4939 125.311 36.3591 125.308 36.2064C125.305 36.0567 125.296 35.91 125.296 35.7603C125.296 35.4638 125.299 35.1644 125.319 34.8679C125.389 33.6822 125.62 32.5114 125.978 31.3795C126.152 30.8105 126.366 30.2536 126.586 29.6966C126.695 29.4181 126.811 29.1397 126.907 28.8492C126.924 28.7953 126.941 28.7414 126.956 28.6875C126.961 28.8133 126.97 28.939 126.982 29.0648C127.008 29.4062 127.077 29.7505 127.141 30.0799C127.204 30.4123 127.265 30.7417 127.32 31.077C127.427 31.7418 127.517 32.4095 127.589 33.0773C127.624 33.4127 127.652 33.745 127.67 34.0804C127.69 34.4188 127.693 34.7452 127.664 35.0775V35.0746Z" fill="#0F204B"/>
<path d="M125.516 27.9927C125.631 27.6124 125.718 27.2112 125.73 26.8069C125.744 26.4027 125.712 26.0044 125.637 25.6152C125.631 25.5912 125.611 25.5732 125.588 25.5732C125.562 25.5732 125.539 25.5972 125.542 25.6241C125.548 26.0164 125.55 26.4057 125.507 26.789C125.47 27.1722 125.383 27.5406 125.27 27.9119C125.157 28.2832 125.033 28.6605 124.949 29.0497C124.862 29.439 124.813 29.8403 124.828 30.2415C124.828 30.2685 124.848 30.2894 124.874 30.2924C124.903 30.2954 124.929 30.2744 124.932 30.2445C124.978 29.8582 125.053 29.4779 125.16 29.1066C125.267 28.7353 125.394 28.37 125.513 27.9897L125.516 27.9927Z" fill="#0F204B"/>
<path d="M130.105 36.8684C130.082 36.8684 130.061 36.8834 130.058 36.9073C130.035 37.1139 130.032 37.3206 130.009 37.5242C129.995 37.7278 129.975 37.9314 129.946 38.132C129.891 38.5333 129.818 38.9315 129.714 39.3238C129.616 39.7161 129.48 40.0994 129.376 40.5036C129.327 40.7072 129.281 40.9138 129.258 41.1234C129.237 41.333 129.234 41.5457 129.246 41.7523C129.246 41.7792 129.269 41.8002 129.295 41.8032C129.324 41.8032 129.35 41.7822 129.35 41.7523C129.382 41.345 129.466 40.9528 129.59 40.5695C129.717 40.1862 129.859 39.7969 129.963 39.3927C130.067 38.9884 130.134 38.5722 130.157 38.156C130.189 37.7398 130.174 37.3236 130.136 36.9103C130.136 36.8894 130.119 36.8744 130.099 36.8714L130.105 36.8684Z" fill="#0F204B"/>
<path d="M121.856 34.5058C121.862 34.1914 121.867 33.874 121.885 33.5596C121.89 33.2422 121.917 32.9278 121.925 32.6104C121.925 32.5834 121.908 32.5595 121.882 32.5565C121.856 32.5535 121.83 32.5714 121.824 32.5984C121.731 33.2272 121.665 33.862 121.633 34.4968C121.601 35.1347 121.607 35.7755 121.642 36.4103C121.685 37.0451 121.737 37.6769 121.769 38.3057C121.798 38.9345 121.792 39.5664 121.775 40.1982C121.775 40.2281 121.795 40.2521 121.821 40.2551C121.85 40.2581 121.879 40.2371 121.882 40.2072C121.963 39.5753 121.997 38.9375 121.992 38.2967C121.986 37.6589 121.928 37.0241 121.899 36.3923C121.859 35.7635 121.847 35.1317 121.856 34.5028V34.5058Z" fill="#0F204B"/>
<path d="M132.452 31.9843C132.481 31.9843 132.504 31.9574 132.501 31.9275C132.489 31.6071 132.483 31.2867 132.481 30.9633C132.481 30.6429 132.486 30.3225 132.492 29.9991L132.524 29.0349L132.553 28.0677C132.553 28.0437 132.538 28.0228 132.515 28.0168C132.489 28.0108 132.463 28.0288 132.457 28.0557C132.388 28.3731 132.345 28.6965 132.31 29.0199C132.278 29.3433 132.261 29.6697 132.258 29.9931C132.252 30.3195 132.258 30.6429 132.281 30.9693C132.301 31.2926 132.336 31.619 132.4 31.9394C132.405 31.9634 132.429 31.9843 132.452 31.9814V31.9843Z" fill="#0F204B"/>
<path d="M133.395 39.2756C133.363 39.2756 133.337 39.2966 133.334 39.3295C133.302 39.7667 133.267 40.2009 133.21 40.6321C133.152 41.0633 133.077 41.4915 133.01 41.9287C132.946 42.3658 132.892 42.806 132.874 43.2492C132.854 43.6924 132.857 44.1355 132.889 44.5757C132.889 44.5997 132.909 44.6206 132.935 44.6236C132.964 44.6236 132.987 44.6057 132.99 44.5757C133.024 44.1385 133.053 43.7013 133.1 43.2672C133.146 42.833 133.204 42.4048 133.273 41.9706C133.337 41.5394 133.409 41.1022 133.438 40.659C133.473 40.2159 133.476 39.7727 133.444 39.3295C133.444 39.3026 133.421 39.2786 133.392 39.2756H133.395Z" fill="#0F204B"/>
<path d="M133.556 34.6465C132.9 34.6465 132.368 35.1975 132.368 35.8772C132.368 36.1018 132.426 36.3114 132.527 36.494C132.426 36.6767 132.368 36.8863 132.368 37.1109C132.368 37.7906 132.9 38.3416 133.556 38.3416C134.213 38.3416 134.745 37.7906 134.745 37.1109C134.745 36.8863 134.687 36.6767 134.586 36.494C134.687 36.3114 134.745 36.1018 134.745 35.8772C134.745 35.1975 134.213 34.6465 133.556 34.6465ZM133.556 38.0002C133.082 38.0002 132.695 37.599 132.695 37.1079C132.695 36.9941 132.715 36.8833 132.756 36.7845C132.967 36.9851 133.247 37.1079 133.556 37.1079C133.866 37.1079 134.146 36.9851 134.357 36.7845C134.395 36.8863 134.418 36.9941 134.418 37.1079C134.418 37.599 134.031 38.0002 133.556 38.0002Z" fill="#0F204B"/>
<path d="M126.765 33.4095C126.736 33.2568 126.692 33.0981 126.69 32.9604V32.9514C126.69 32.9274 126.672 32.9035 126.646 32.9005C126.617 32.8975 126.594 32.9154 126.588 32.9454C126.577 33.0322 126.577 33.1131 126.58 33.1939C126.522 33.4065 126.426 33.6042 126.317 33.8078C126.244 33.9485 126.178 34.0952 126.129 34.2509C126.08 34.4096 126.051 34.5743 126.039 34.739C126.03 34.9097 126.025 35.0624 126.056 35.2451C126.085 35.4098 126.129 35.5565 126.169 35.7092L126.288 36.1584C126.311 36.2542 126.334 36.353 126.348 36.4488C126.34 36.5177 126.331 36.5866 126.325 36.6584C126.325 36.6824 126.34 36.7034 126.363 36.7093C126.389 36.7153 126.415 36.7004 126.421 36.6734C126.493 36.374 126.62 36.0895 126.739 35.7961C126.857 35.5056 126.976 35.1942 126.996 34.8498C127.005 34.4995 126.932 34.1881 126.872 33.8766L126.77 33.4125L126.765 33.4095ZM126.681 34.8199C126.655 35.1073 126.585 35.4068 126.507 35.7122C126.484 35.802 126.461 35.8919 126.438 35.9847C126.429 35.8739 126.418 35.7661 126.403 35.6583C126.383 35.5026 126.357 35.3469 126.343 35.2032C126.334 35.0744 126.343 34.9127 126.354 34.772C126.389 34.4815 126.467 34.206 126.548 33.9036C126.571 33.8138 126.594 33.7239 126.617 33.6341L126.646 33.9126C126.675 34.224 126.716 34.5414 126.681 34.8229V34.8199Z" fill="#0F204B"/>
<path d="M75.3826 22.4021C72.7315 22.4021 69.6236 24.0729 68.1838 25.7438V22.6386C68.1838 21.8032 68.0104 21.5067 67.146 21.926L64.3503 23.2854C64.2404 23.3483 64.1393 23.3124 64.1046 23.2764C64.0901 23.2585 64.0728 23.2405 64.0612 23.2195C64.0092 23.1447 63.8299 22.9081 63.8212 22.8003C63.7894 22.414 64.2665 22.1086 64.1132 21.6145C63.9629 21.1294 63.4714 21.4618 63.3905 21.2492C63.3384 21.1145 63.642 20.6234 63.6883 20.5126C63.7808 20.285 64.0034 19.9017 63.8964 19.6382C63.7316 19.231 63.2286 19.4975 62.9944 19.6951C63.0464 19.1112 63.1708 18.5273 63.1852 17.9404C63.1881 17.7787 63.2257 17.5002 63.0869 17.3745C62.8065 17.1229 62.5723 17.5631 62.4393 17.5092C62.2977 17.4523 62.3526 16.4851 62.289 16.3145C62.0982 15.8054 61.5026 15.9042 61.2945 16.3684C61.3205 16.3085 61.0661 16.0599 61.0198 16.012C60.8174 15.8054 60.644 15.6856 60.3433 15.7276C59.7391 15.8114 59.7535 16.6259 59.8692 17.108C59.3285 17.1319 58.7821 17.5332 59.2765 18.0991C59.5512 18.4105 60.005 18.6231 60.3578 18.8327C59.8431 18.9855 59.3054 19.5454 59.9935 19.9017C60.4907 20.1593 61.0776 20.285 61.5865 20.5425C61.2511 20.6803 60.7827 20.9947 61.0776 21.4139C61.3263 21.7702 62.0577 21.9499 62.4364 22.1416C62.263 22.3512 62.208 22.6506 62.422 22.8512C62.6937 23.1057 63.0869 22.8961 63.4049 22.965C63.4541 23.0758 63.5755 23.2974 63.7085 23.492C63.7692 23.5819 63.6449 23.6208 63.6073 23.6447L61.4997 24.6688C61.1528 24.8485 61.0979 24.9653 61.0979 25.5043C61.0979 25.9804 61.0979 26.2169 61.6183 26.2768C63.9774 26.5792 64.2694 26.696 64.2694 28.4238C64.2694 28.4238 64.1508 53.2443 64.0959 57.6581C64.0959 58.2569 63.9774 58.3138 63.4627 58.3138H61.7917C61.2135 58.3138 61.1528 58.4935 61.1528 58.9696V60.344C61.1528 60.8201 61.2135 60.9998 61.7917 60.9998C62.8845 60.9998 64.3821 60.9429 65.8219 60.9429C67.2616 60.9429 69.453 60.9998 70.5458 60.9998C71.124 60.9998 71.179 60.8201 71.179 60.344V58.9696C71.179 58.4935 71.124 58.3138 70.5458 58.3138H68.8199C68.2417 58.3138 68.1867 58.1342 68.1867 57.6581V43.5784C69.8578 44.5935 71.9306 45.2493 74.0585 45.2493C79.4763 45.2493 84.0818 40.7757 84.0818 33.8526C84.0818 28.304 81.4307 22.3991 75.3855 22.3991L75.3826 22.4021ZM74.1712 43.282C71.9249 43.282 69.852 42.6891 68.181 41.4374V27.5345C69.2188 26.6391 71.1732 25.9834 72.558 25.9834C78.317 25.9834 81.4278 31.1726 81.4278 35.5864C81.4278 40.0001 78.4905 43.282 74.1712 43.282Z" fill="#0F204B"/>
<path d="M98.9297 45.2554C97.0852 45.2554 95.1309 43.3449 95.1309 41.1351C95.1309 38.1527 96.8568 36.5447 99.2217 35.4068C100.543 34.751 103.255 33.7988 106.652 32.9634V29.7414C106.652 26.3997 104.865 25.2049 102.908 25.2049C101.809 25.2049 99.9098 25.8607 98.1231 27.4148C97.7241 27.7681 97.435 27.8909 97.0852 27.7112C96.799 27.5315 96.6805 27.1722 96.9725 26.6961C98.3573 24.3695 102.558 22.1626 105.036 22.1626C109.3 22.1626 110.682 25.2049 110.682 29.8582V39.5241C110.682 41.0153 111.315 41.9675 112.469 41.9675C113.333 41.9675 113.908 41.4345 114.481 40.8925C114.828 40.5961 115.175 40.4733 115.461 40.656C115.689 40.7787 115.808 41.1321 115.516 41.6711C114.651 43.1054 112.865 45.2524 109.985 45.2524C108.141 45.2524 106.935 43.3419 106.588 41.195C104.801 42.5634 101.115 45.2524 98.9239 45.2524L98.9297 45.2554ZM106.649 39.6439V34.3348C104.978 34.6941 102.385 35.5895 101.118 36.365C99.852 37.1376 99.2737 38.2096 99.2737 39.4073C99.2737 40.7189 100.254 41.9735 101.694 41.9735C103.133 41.9735 105.325 40.7189 106.646 39.6469L106.649 39.6439Z" fill="#0F204B"/>
<path d="M168.749 38.8957C168.726 38.7729 168.717 38.6501 168.683 38.5273C168.561 38.0363 168.341 37.5602 168.029 37.1559C167.708 36.7577 167.301 36.4612 166.873 36.2546C166.445 36.048 165.997 35.9312 165.552 35.8743C165.439 35.8653 165.329 35.8504 165.216 35.8474C165.103 35.8504 164.991 35.8504 164.881 35.8713C164.768 35.8953 164.658 35.9162 164.548 35.9641C164.493 35.9851 164.441 36.0031 164.386 36.03C164.332 36.057 164.282 36.1019 164.251 36.2336C164.323 36.3504 164.375 36.3863 164.421 36.3983C164.47 36.4103 164.519 36.4283 164.569 36.4432C164.667 36.4732 164.762 36.5061 164.858 36.5331C165.049 36.587 165.234 36.6199 165.421 36.6618C165.792 36.7517 166.141 36.8954 166.445 37.093C166.748 37.2877 167.003 37.5332 167.188 37.8177C167.364 38.1081 167.477 38.4315 167.532 38.7789C167.627 39.5035 167.494 40.1952 167.116 40.7252C167.078 40.7791 167.035 40.83 166.991 40.8809C166.535 41.4499 163.918 41.372 163.918 41.372C161.715 41.372 160.995 41.4589 160.784 40.3689C160.799 36.8145 160.83 28.9752 160.83 23.6362V7.16705C160.83 6.21483 160.31 6.03517 159.677 6.38851C157.714 7.49044 155.91 8.43068 154.378 9.22719C154.248 9.29606 154.106 9.36793 153.979 9.43381C153.632 9.61347 153.574 9.67336 153.574 10.2692C153.574 10.925 153.629 10.9819 154.089 11.0418C154.67 11.1196 155.109 11.1706 155.473 11.2215C156.797 11.4071 156.855 11.5808 156.855 12.8923V25.0017C155.242 23.8698 152.764 23.0343 150.116 23.0343C144.745 23.0343 140.122 27.7325 140.047 34.3861C140.047 34.443 140.032 34.4909 140.032 34.5478C140.032 40.333 143.779 45.7079 148.676 45.7079C150.504 45.7079 152.704 44.6 156.04 42.6057C156.271 42.465 156.497 42.3362 156.74 42.1865L156.615 44.2017L156.566 44.9892C156.511 45.8247 157.026 45.8247 157.665 45.5881C157.731 45.5672 157.83 45.5432 157.899 45.5222C159.37 45.0671 161.793 44.6179 163.883 44.2766C163.883 44.2766 165.167 44.2047 167.26 42.6596C167.645 42.3392 168.003 41.9679 168.266 41.5157C168.341 41.4109 168.388 41.2822 168.445 41.1654C168.5 41.0456 168.561 40.9288 168.593 40.8001L168.706 40.4228C168.732 40.294 168.746 40.1653 168.766 40.0365C168.816 39.779 168.792 39.5245 168.79 39.27C168.79 39.1412 168.758 39.0214 168.743 38.8986L168.749 38.8957ZM151.735 42.1296C145.97 42.1296 143.036 36.5181 143.036 32.6434C143.036 31.8648 143.16 31.1252 143.342 30.4185C144.129 27.3972 146.502 25.1873 150.003 25.1873C152.741 25.1873 155.468 26.8252 156.812 29.0561C156.826 29.08 156.847 29.104 156.861 29.1279V31.6313C156.861 34.1974 156.916 38.7908 156.861 40.4617C155.589 41.6565 154.149 42.1326 151.735 42.1326V42.1296Z" fill="#0F204B"/>
<path d="M45.7285 45.3005C43.884 45.3005 41.9297 43.3901 41.9297 41.1802C41.9297 38.1978 43.6556 36.5898 46.0205 35.452C47.3417 34.7962 50.0535 33.844 53.4505 33.0085V29.7866C53.4505 26.4448 51.6639 25.2501 49.7066 25.2501C48.6138 25.2501 46.7086 25.9058 44.9277 27.4599C44.523 27.8133 44.2339 27.936 43.8869 27.7564C43.6007 27.5767 43.4822 27.2174 43.7742 26.7413C45.159 24.4146 49.3597 22.2078 51.8373 22.2078C56.1016 22.2078 57.4836 25.2501 57.4836 29.9034V39.5693C57.4836 41.0605 58.1167 42.0127 59.2702 42.0127C60.1347 42.0127 60.71 41.4797 61.2824 40.9377C61.6293 40.6413 61.9763 40.5185 62.2625 40.7011C62.4909 40.8239 62.6094 41.1773 62.3174 41.7162C61.453 43.1506 59.6721 45.2975 56.7868 45.2975C54.9423 45.2975 53.7368 43.3871 53.3898 41.2401C51.6032 42.6086 47.9171 45.2975 45.7256 45.2975L45.7285 45.3005ZM53.4476 39.689V34.38C51.7766 34.7393 49.1833 35.6346 47.9171 36.4102C46.6508 37.1827 46.0726 38.2547 46.0726 39.4525C46.0726 40.764 47.0526 42.0187 48.4924 42.0187C49.9321 42.0187 52.1235 40.764 53.4448 39.692L53.4476 39.689Z" fill="#0F204B"/>
<path d="M44.3237 47.5582C41.0164 45.1088 40.4468 44.9021 40.0045 43.6235C39.2933 41.5694 41.4703 37.1526 40.7909 37.2245C39.0996 37.4012 37.4691 43.36 33.994 45.7915C31.5597 47.4923 30.3744 48.8727 27.6279 49.0494C26.512 49.0913 25.2486 48.8547 23.5689 48.196C18.8015 46.3275 19.4722 47.2348 18.1771 45.0638C16.8819 42.8929 16.1909 33.7091 16.8963 30.1068C17.7203 25.8967 18.417 19.9199 20.0909 16.8566C21.7012 13.9102 24.5027 9.48444 27.0323 6.34631C29.7904 2.92671 29.562 1.1181 28.9636 1.42053C28.1049 1.85472 24.8525 6.6757 24.0835 6.69366C23.3145 6.71163 22.2823 2.5075 21.0421 0.956402C19.6515 -0.777353 19.3277 0.132943 19.9724 1.42353C20.7703 3.01954 22.1407 5.73845 21.4208 8.14594C20.7009 10.5534 20.1343 11.1643 20.1343 11.1643C20.1343 11.1643 16.1389 5.63964 14.1874 4.63352C13.6468 4.35504 12.7303 4.06159 12.9269 4.62753C13.1119 5.16053 13.3288 5.34618 14.7396 6.71762C15.3901 7.34943 19.1976 12.2602 18.4344 14.3952C17.3965 17.2968 17.3589 18.4467 15.9538 18.0903C14.5488 17.734 12.525 13.991 9.4345 11.5745C6.688 9.43054 3.9415 9.17302 3.30836 9.72399C2.94698 10.0384 4.08316 10.4516 5.23091 11.1643C6.37866 11.88 9.80456 14.6019 9.32175 15.8326C8.98928 16.674 6.97711 17.0064 4.57464 17.8657C4.53416 17.752 4.49369 17.6442 4.44454 17.5424C4.34046 17.3238 4.23349 17.186 4.11785 17.1231C4.02823 17.0722 3.92993 17.0633 3.83164 17.0992C3.66685 17.1591 3.5194 17.3417 3.40954 17.6142C3.3257 17.8238 3.26788 18.0784 3.22741 18.3988C2.32251 18.791 1.40026 19.2731 0.515599 19.9019C-0.574329 20.6775 0.136871 21.2883 1.96113 20.6835C2.40057 20.5367 2.80242 20.405 3.17826 20.2852C3.2303 21.2225 3.37196 22.1328 3.51362 22.9592C3.34883 23.1479 3.24186 23.3874 3.21295 23.6509C3.19561 23.8276 3.22163 23.9953 3.27077 24.157C3.12333 24.1989 3.03371 24.2378 3.03371 24.2378C3.03371 24.2378 2.92963 24.2648 2.4873 24.4804C2.04497 24.696 1.73851 25.0044 1.28751 25.5104C0.888545 25.9596 0.648587 26.822 0.564747 27.2681C0.405739 27.4478 0.151326 27.8221 0.191801 28.2413C0.21782 28.5288 0.336353 28.7144 0.645696 28.9061C0.729537 29.1367 0.914564 29.6307 0.995514 29.7924C1.11116 30.014 1.42917 30.6758 2.25601 31.1489C3.08286 31.622 3.27366 31.634 3.77671 31.6909C3.95306 31.7118 4.16411 31.7178 4.40407 31.6999C3.66974 31.7148 2.64631 31.2597 2.29071 29.5139C2.29071 29.5139 2.17217 29.469 2.0681 29.3822C1.91198 29.2624 1.80501 29.0857 1.79055 28.8791C1.76164 28.4809 2.09122 28.1305 2.52199 28.0976C2.95276 28.0647 3.3257 28.3611 3.35461 28.7624C3.37485 29.0378 3.22452 29.2894 2.98745 29.4301C3.09731 31.1728 4.40407 31.6999 5.20489 31.5382C5.494 31.4783 5.83514 31.3555 6.18207 31.1399C7.15346 30.538 7.53797 29.487 7.64783 29.1636C7.95717 29.0917 8.09016 29.0019 8.174 28.7833C8.3359 28.3611 8.02945 27.8521 7.87622 27.6185C7.8531 27.3879 7.82129 27.0436 7.76925 26.8609C7.65361 26.4597 7.48015 26.0704 7.01758 25.4146C6.55501 24.7618 5.75419 24.4055 5.60675 24.3486C5.48243 24.3007 5.19333 24.2049 5.10948 24.1749C5.14707 24.0731 5.18465 23.9743 5.19622 23.8605C5.23669 23.4683 5.09792 23.1 4.85507 22.8664C4.89844 22.6328 4.92446 22.3963 4.94759 22.1867C4.99962 21.6596 5.06034 21.0638 5.0401 20.4559C5.03143 20.2014 5.00541 19.9558 4.9765 19.7193C8.2058 18.7731 8.26363 19.2102 9.95489 20.0786C12.1521 21.2045 13.7104 22.3873 13.6699 26.9747C13.6468 29.466 12.9211 38.3744 12.3342 40.3776C12.2012 40.8298 12.0972 41.3059 12.0046 41.773C11.8572 42.5156 11.73 43.2373 11.5508 43.8331C11.5103 43.9679 11.4669 44.0937 11.4207 44.2134C11.3224 44.6835 11.2559 45.0728 11.2732 45.2076C11.2732 45.3184 11.3455 45.8573 11.3455 45.8573C11.3744 46.4353 11.3079 46.9743 11.2472 47.3276C11.2009 47.6031 11.2877 47.8846 11.4843 48.0732C11.8052 48.3816 12.2764 48.8577 12.5106 49.1751C12.6436 49.3578 12.7766 49.6003 12.8951 49.8369C13.1061 50.2621 13.5658 50.4687 14.0197 50.3699C14.1816 50.334 14.3522 50.322 14.517 50.3519C15.0894 50.4567 15.4392 49.4806 15.4392 49.4806C15.4392 49.4806 16.772 49.8279 18.1857 50.1543C18.6049 50.2501 19.027 50.346 19.426 50.4268C19.8596 50.5586 20.3511 50.7532 20.7963 51.0257C23.2451 52.5528 26.8502 54.3045 27.4631 53.6637C27.7725 53.3403 31.0249 51.2173 33.0544 51.5617C34.1386 51.7443 37.1886 53.8494 38.2178 54.8525C39.2471 55.8556 39.6749 55.5083 39.4436 55.0382C37.8507 51.7713 34.5664 49.4207 34.6532 49.2889C34.6532 49.2889 36.6596 45.2645 40.1404 46.7527C42.0022 47.5492 42.6961 47.7169 43.5663 47.9864C44.1792 48.175 44.7487 47.8606 44.3324 47.5522L44.3237 47.5582ZM3.9415 18.0843C3.9415 18.0843 3.94728 18.0933 3.95306 18.0993C3.9415 18.1053 3.92993 18.1083 3.91837 18.1143C3.92704 18.1023 3.93861 18.0903 3.94439 18.0873L3.9415 18.0843ZM4.42141 19.89C4.45032 20.0966 4.47634 20.3092 4.48213 20.5278C4.49947 21.0069 4.44743 21.5099 4.39828 21.998C4.37805 22.2016 4.3289 22.4352 4.29132 22.6179C4.20458 22.6119 4.12074 22.6179 4.03979 22.6358C3.89813 21.8124 3.76803 20.956 3.72756 20.1056C3.97041 20.0277 4.20169 19.9558 4.41852 19.89H4.42141ZM3.69287 23.615C3.76804 23.7827 3.86922 23.9234 3.99932 23.9803C4.03979 23.9983 4.08316 24.0073 4.12653 24.0073C4.3289 24.0073 4.51393 23.8156 4.67872 23.4503C4.72208 23.5611 4.75099 23.6839 4.73654 23.8186C4.72787 23.9114 4.70185 23.9983 4.66426 24.0791C4.30577 24.0222 3.98776 24.0312 3.72467 24.0671C3.6813 23.9534 3.65239 23.8336 3.66685 23.7018C3.66974 23.6719 3.68419 23.6449 3.68998 23.618L3.69287 23.615ZM7.62181 27.7862C7.723 27.903 8.08727 28.406 7.97163 28.7055C7.95428 28.7474 7.92826 28.7863 7.89357 28.8222C7.9167 28.7474 7.93404 28.6845 7.93404 28.6486C7.93404 28.4988 7.83864 28.3701 7.55243 28.1395C7.23441 27.882 6.62151 27.6215 5.74841 27.3729C4.95048 27.1454 3.0048 27.2741 2.51621 27.3131C2.44393 27.3191 2.37166 27.328 2.29938 27.34C1.68358 27.4568 0.926129 27.7652 0.619677 28.0227C0.515599 28.1096 0.466451 28.2563 0.440431 28.3611C0.431758 28.3312 0.420194 28.2593 0.417303 28.2264C0.388392 27.9329 0.631241 27.6335 0.767121 27.4778C0.946366 27.3041 1.37713 26.9058 2.14904 26.7831C6.5261 26.0794 7.6247 27.7922 7.6247 27.7922L7.62181 27.7862Z" fill="#0F204B"/>
</g>
<defs>
<clipPath id="clip0_13_2">
<rect width="169" height="61" fill="white"/>
</clipPath>
</defs>
</svg>
